<?xml version="1.0" encoding="UTF-8"?>
<svg id="Layer_1" data-name="Layer 1" xmlns="http://www.w3.org/2000/svg" viewBox="0 0 96 96">
  <defs>
    <style>
      .cls-1 {
        fill: #231f20;
        stroke-width: 0px;
      }
    </style>
  </defs>
  <path class="cls-1" d="m30.03,78.84v.09l.03-.03s-.03-.03-.03-.05Z"/>
  <path class="cls-1" d="m30.04,87.5l-.02.02v-.03s0,.01.02.02Z"/>
  <g>
    <path class="cls-1" d="m78.04,82.92l.02.02h-.03s.01,0,.02-.02Z"/>
    <path class="cls-1" d="m75.36,85.77s-2.8-2.79-2.84-2.83c-.42-.42-.83-.84-1.24-1.28-4.91,3.73-10.15,6.57-16.36,7.26-1,.11-2.01.17-3.04.17s-2.05-.06-3.04-.17c-8.12-.9-15.65-5.45-20.22-12.23-2.64-3.91-4.31-8.52-4.69-13.47-.03-.32-.04-.62-.05-.94-.02-.31-.02-.62-.02-.93,0-1.03.05-2.04.16-3.05.68-6.27,3.44-11.93,7.58-16.27,2.61-2.73,5.69-4.82,9.02-6.26v-6.43c-3.21,1.2-6.28,2.86-9.36,4.82-2.14,1.36-3.91,3.11-5.55,5.05-4.95,5.92-7.94,13.54-7.94,21.86,0,.09,0,.18,0,.28,0,.41,0,.81.03,1.21.02.61.06,1.22.11,1.83.63,7.12,3.46,13.63,7.82,18.82,11.36,13.53,32.59,16.04,46.74,5.3.49-.37.95-.74,1.41-1.13.55-.47,1.1-.95,1.62-1.46l-.15-.15Zm-45.33-6.84v-.09s.02.03.03.05l-.03.03Z"/>
    <path class="cls-1" d="m78.21,5.49l-4.34,4.34c-.09-.07-.19-.14-.29-.21-2.55-1.73-5.63-2.74-8.94-2.74-2.44,0-4.75.54-6.81,1.53-1.88.89-3.56,2.14-4.95,3.65-1.96,2.14-3.35,4.8-3.92,7.76-.19.98-.11,1.53-.11,2.56s-.09,2.05,0,3.11v41.4l-6.08,5.61v-23.47l.02-.02s0,0-.02,0v-8.57l.03-.03s-.02-.03-.03-.04v-14.46h.03c0-.05,0-.1-.02-.16-.13-.94-.19-1.9-.19-2.88s.07-2.05.21-3.04c.64-4.64,2.73-8.81,5.78-12.05,1.4-1.49,3-2.78,4.76-3.84,3.3-1.99,7.17-3.12,11.3-3.12,4.98,0,9.59,1.66,13.29,4.47.09.06.18.14.28.21Z"/>
    <path class="cls-1" d="m78.05,39.49l-4.32,4.32c-.04-.06-.09-.11-.14-.17-1.23-1.53-2.63-2.91-4.16-4.14-5.58-4.48-12.52-6.45-19.32-6.01-.57.03-1.13.09-1.7.16v-6.21c.56-.07,1.13-.12,1.7-.15.58-.03,1.18-.05,1.79-.05,8.3,0,15.93,2.99,21.84,7.94,1.56,1.3,2.99,2.74,4.31,4.3Z"/>
    <path class="cls-1" d="m30.06,78.89l-.03.03v-.09s.02.03.03.05Z"/>
  </g>
</svg>
